<svg xmlns="http://www.w3.org/2000/svg" width="375" viewBox="0 0 375 375" height="375" version="1.0"><path fill="#FFF" d="M-37.5 -37.5H412.5V412.5H-37.5z"/><path fill="#FFF" d="M-37.5 -37.5H412.5V412.5H-37.5z"/><path fill="#FF542D" d="M-37.5 -37.5H412.5V412.5H-37.5z"/><g fill="#342020" fill-opacity=".4"><g><g><path d="M 133.75 -202.8125 L 133.75 -176.890625 L 55.078125 -176.890625 L 55.078125 -115.390625 L 125.015625 -115.390625 L 125.015625 -89.75 L 55.078125 -89.75 L 55.078125 -25.9375 L 133.75 -25.9375 L 133.75 0 L 21.859375 0 L 21.859375 -202.8125 Z M 133.75 -202.8125" transform="translate(112.09 293.736)"/></g></g></g><g fill="#342020" fill-opacity=".4"><g><g><path d="M 48.375 -5.671875 C 44.488281 -1.890625 39.726562 0 34.09375 0 C 28.457031 0 23.742188 -1.941406 19.953125 -5.828125 C 16.171875 -9.710938 14.28125 -14.421875 14.28125 -19.953125 C 14.28125 -25.492188 16.171875 -30.207031 19.953125 -34.09375 C 23.742188 -37.976562 28.457031 -39.921875 34.09375 -39.921875 C 39.726562 -39.921875 44.488281 -37.976562 48.375 -34.09375 C 52.257812 -30.207031 54.203125 -25.445312 54.203125 -19.8125 C 54.203125 -14.175781 52.257812 -9.460938 48.375 -5.671875 Z M 48.375 -5.671875" transform="translate(264.79 293.736)"/></g></g></g><g fill="#FFF"><g><g><path d="M 133.75 -202.8125 L 133.75 -176.890625 L 55.078125 -176.890625 L 55.078125 -115.390625 L 125.015625 -115.390625 L 125.015625 -89.75 L 55.078125 -89.75 L 55.078125 -25.9375 L 133.75 -25.9375 L 133.75 0 L 21.859375 0 L 21.859375 -202.8125 Z M 133.75 -202.8125" transform="translate(99.211 280.857)"/></g></g></g><g fill="#FFF"><g><g><path d="M 48.375 -5.671875 C 44.488281 -1.890625 39.726562 0 34.09375 0 C 28.457031 0 23.742188 -1.941406 19.953125 -5.828125 C 16.171875 -9.710938 14.28125 -14.421875 14.28125 -19.953125 C 14.28125 -25.492188 16.171875 -30.207031 19.953125 -34.09375 C 23.742188 -37.976562 28.457031 -39.921875 34.09375 -39.921875 C 39.726562 -39.921875 44.488281 -37.976562 48.375 -34.09375 C 52.257812 -30.207031 54.203125 -25.445312 54.203125 -19.8125 C 54.203125 -14.175781 52.257812 -9.460938 48.375 -5.671875 Z M 48.375 -5.671875" transform="translate(251.911 280.857)"/></g></g></g></svg>